<?xml version="1.0"?>
<svg version="1.1" xmlns="http://www.w3.org/2000/svg" width="178" height="154" ><path fill="#1394f0" d="M75,6.8l-6.3,0l0,32l-42.2,0l0-32l-6.3,0l0,70.2l6.3,0l0-31.9l42.2,0l0,31.9l6.3,0l0-70.2z M107.984,74.3l37.7,0l0-7.6l-37.7,0q-7.4,0-12.4,5.8q-5.1,5.9-5.1,14.3q0,7.6,5.1,13.2q5,5.7,12.4,5.7l10,0l10.2,0q4.5,0,8,3.8q3.3,4,3.3,8.7q0,5.6-3.25,9.1t-8.05,3.5l-37.7,0l0,6.2l37.7,0q7.5,0,12.5-5.2t5-13.6q0-7.6-5-13.2q-5.1-5.6-12.5-5.6l-10.2,0l-10,0q-4.6,0-7.9-4q-3.4-3.7-3.4-8.6q0-5.6,3.25-9.05t8.05-3.45z"/><path fill="#" d=""/></svg>
